<svg width="193" height="246" viewBox="0 0 193 246" fill="none" xmlns="http://www.w3.org/2000/svg">
<path d="M89.2668 0.717575C70.6633 4.08672 52.3527 17.6609 42.5871 35.3855C38.3391 43.0027 32.968 58.8719 30.6242 70.493C28.6711 80.3074 28.3293 85.6785 28.7199 102.964C29.0617 119.761 28.7688 124.302 26.8645 133.237C24.8625 142.71 22.177 149.448 17.0012 158.286C10.3117 169.614 4.69649 183.628 1.7668 196.079C0.106648 203.159 -0.332805 213.999 0.790242 218.882C1.7668 223.081 3.91524 227.378 6.69844 230.747L8.74923 233.286L7.57735 238.266C6.55196 242.759 6.50313 243.345 7.1379 244.37C8.16329 245.884 9.67696 246.274 11.093 245.346C11.9719 244.761 12.4113 243.833 12.8508 241.636C13.1438 240.024 13.5832 238.559 13.8274 238.462C14.0227 238.315 15.3899 238.95 16.8059 239.829C23.4465 244.028 29.0617 245.298 40.8781 245.298H49.6672L52.841 243.784C61.8254 239.487 65.927 230.845 63.1438 222.104C62.6066 220.395 62.2649 218.882 62.3625 218.784C62.6555 218.491 66.5129 219.223 66.5129 219.565C66.5129 219.761 65.927 222.544 65.2922 225.766C64.6086 228.989 64.0715 232.212 64.0715 232.944C64.0715 234.311 65.5852 235.776 67.0012 235.776C68.9055 235.776 69.4914 234.555 70.9074 227.524C71.6887 223.667 72.3723 220.493 72.4699 220.444C72.5676 220.395 75.9367 220.639 79.9406 220.981C83.9934 221.323 89.4133 221.763 92.05 221.909L96.7863 222.202V228.647C96.7863 235.874 97.2258 237.241 99.6672 237.241C102.255 237.241 102.646 236.167 102.646 228.843V222.202L107.431 221.909C110.019 221.763 115.488 221.323 119.491 220.981C123.544 220.639 126.864 220.346 126.913 220.346C126.962 220.395 127.646 223.569 128.476 227.475C129.941 234.653 130.527 235.776 132.529 235.776C133.749 235.776 135.361 234.018 135.361 232.7C135.361 232.114 134.823 228.989 134.14 225.766C133.505 222.544 132.919 219.761 132.919 219.614C132.919 219.419 134.775 218.93 137.021 218.491C139.316 218.052 142.978 217.124 145.175 216.489C147.421 215.854 149.277 215.366 149.325 215.415C150.155 216.343 154.355 234.555 155.624 242.759C156.015 245.151 157.773 246.421 159.579 245.591C161.386 244.809 161.63 243.393 160.898 238.755C158.505 223.325 153.329 206.821 146.786 193.93C145.126 190.61 143.954 187.925 144.247 187.925C144.833 187.925 157.284 191.733 157.87 192.124C158.114 192.27 159.579 194.516 161.093 197.104C167.441 207.846 172.372 222.593 174.911 238.462C175.693 243.149 176.083 244.516 176.913 245.151C178.183 246.225 178.769 246.225 180.185 245.249C181.601 244.272 181.601 242.026 180.038 233.725C178.622 225.913 176.132 216.684 173.788 210.532C172.861 208.042 172.275 206.138 172.47 206.235C173.398 206.772 177.45 213.413 179.013 216.831C181.21 221.665 183.945 230.259 185.702 237.729C186.484 241.098 187.118 243.979 187.118 244.175C187.118 244.37 187.655 244.907 188.339 245.346C189.755 246.274 191.269 245.884 192.294 244.321C192.978 243.296 192.88 242.612 191.269 235.971C189.267 227.475 187.265 221.225 184.628 214.927C183.554 212.436 182.724 209.751 182.724 208.921C182.724 206.675 181.357 200.376 179.941 195.981C178.183 190.513 176.083 186.118 172.372 179.868C168.368 173.227 166.904 169.761 165.829 164.487C164.609 158.335 165.097 149.448 167.489 133.97C170.37 115.659 170.761 111.118 170.761 96.616C170.761 83.0906 170.419 78.6961 168.222 66.0984C164.56 44.7605 158.554 32.7488 144.784 19.4187C134.286 9.31133 122.275 2.86601 109.775 0.668747C104.452 -0.258987 94.4914 -0.210159 89.2668 0.717575ZM108.798 6.52812C126.718 9.94609 143.466 22.6414 154.355 40.9031C157.138 45.6395 159.628 52.8172 161.435 61.3133C163.534 71.4695 165.146 85.2879 165.146 93.1492V97.2996L163.73 95.1023C161.142 90.9519 157.529 88.8523 151.816 88.0222C149.765 87.7293 149.277 87.4363 147.519 85.1902C143.173 79.7215 140.927 73.618 139.511 63.0222C137.655 49.5945 135.312 44.8582 129.062 41.8797C127.841 41.2449 124.716 38.8035 122.177 36.3621C114.364 28.8914 106.601 25.9617 98.2023 27.1824C87.216 28.7449 78.2805 36.5574 71.298 50.4734C66.1223 60.825 63.8762 70.0535 62.6066 86.118C61.6301 99.1551 60.8 103.061 57.382 111.753C54.0617 120.005 53.2805 123.374 52.9875 130.307C52.6945 137.534 53.3293 141.587 56.259 151.059C60.9953 166.05 61.093 171.323 56.9914 184.751C54.2082 193.979 53.7199 196.763 53.7199 203.305C53.7688 209.311 54.5012 213.706 56.6984 220.835C58.5051 226.596 58.5539 228.891 57.0402 232.114C55.7219 234.946 53.9641 236.704 50.8879 238.315C48.8371 239.389 48.2024 239.438 40.3899 239.389C31.1613 239.341 27.4504 238.706 22.3723 236.264C16.1223 233.286 9.62813 226.45 7.33321 220.444C6.30782 217.807 6.21016 216.636 6.21016 209.897C6.25899 203.305 6.40548 201.645 7.57735 196.958C11.0441 183.188 15.7805 171.567 22.5676 160.386C28.9641 149.741 32.7727 137.925 34.2863 124.106C34.6281 121.03 34.7746 111.753 34.677 100.425C34.5305 80.5515 34.6281 79.3797 37.0695 68.2957C38.5344 61.5086 42.3918 49.8875 45.2727 43.2957C52.1086 27.7684 65.9758 14.6824 81.6496 8.96953C90.0969 5.89336 100.595 4.96562 108.798 6.52812ZM106.308 33.3836C110.751 34.5555 113.73 36.4109 118.759 41.2449C121.347 43.6863 124.423 46.1277 125.595 46.6648C128.28 47.8855 129.696 49.2039 130.917 51.5965C131.894 53.5496 133.114 58.7742 133.652 63.657C133.847 65.2683 134.286 68.1004 134.677 69.9558C135.068 71.8113 135.312 73.3738 135.263 73.4226C135.165 73.5203 133.7 73.2762 131.943 72.8855C123.788 71.1765 112.411 72.9832 112.411 76.0105C112.411 76.4988 112.704 77.2801 113.046 77.7195C113.583 78.5008 114.316 78.5496 122.372 78.0613C127.206 77.7683 132.382 77.6707 133.896 77.866L136.728 78.159L138.681 82.1629C139.804 84.3113 141.806 87.4851 143.173 89.1453L145.614 92.1726V96.323C145.614 105.112 143.368 117.124 140.146 125.718C137.607 132.456 134.628 137.29 130.038 142.124C122.568 150.034 114.316 155.259 105.234 157.944C100.253 159.409 97.9582 159.311 92.5383 157.456C84.677 154.77 78.2805 150.766 71.4445 144.223C66.5129 139.536 63.8274 135.825 61.093 130.063L58.9934 125.766L59.9211 122.3C60.4094 120.395 61.7277 116.489 62.8996 113.608C65.4387 107.407 66.8059 102.329 67.5871 96.5183C68.0754 92.8562 68.2707 92.2215 69.052 92.2215C69.7844 92.2215 69.882 92.368 69.4426 93.1492C69.1984 93.6863 68.9543 95.3465 68.9543 96.8601C68.9543 99.2527 69.1496 99.7898 70.3703 101.059C71.4445 102.085 72.2746 102.475 73.593 102.475C74.9113 102.475 75.7414 102.085 76.8156 101.059C78.0363 99.7898 78.2316 99.2527 78.2316 96.8601C78.2316 95.3465 77.9875 93.6375 77.6945 93.1004C77.1086 91.9773 77.3527 91.9773 80.5266 93.2469C83.5051 94.4676 84.7746 91.5379 82.2844 89.1941C79.5988 86.7039 77.841 86.118 72.9582 86.118H68.4172L68.7102 82.9441C69.2473 77.1824 69.0031 77.4754 72.7629 77.7683C74.5695 77.9148 78.2805 78.159 81.0148 78.3543L86.0441 78.6472L86.6301 77.3289C87.9484 74.3992 84.2375 72.6414 75.7414 72.2996L70.0285 72.1043L70.7121 69.0769C72.4211 61.7039 76.6691 51.6941 80.7219 45.7371C84.5793 40.1219 90.2434 35.4344 95.1262 33.9207C99.8625 32.4559 102.206 32.3582 106.308 33.3836ZM155.331 94.907C161.777 98.2273 161.679 108.139 155.087 115.171C153.134 117.27 152.548 117.612 150.937 117.612C149.863 117.612 149.032 117.466 149.032 117.27C149.032 116.294 150.595 108.432 150.986 107.505C151.327 106.723 152.011 106.284 153.427 106.089C155.673 105.747 156.503 104.966 156.503 103.159C156.503 101.401 155.429 100.522 153.28 100.425L151.474 100.376V97.2508C151.474 94.2722 151.523 94.1746 152.695 94.1746C153.427 94.1746 154.599 94.5164 155.331 94.907ZM163.876 118.345C163.486 121.86 162.363 129.282 161.435 134.946C159.14 148.618 158.7 159.067 160.165 166.05C161.239 171.177 163.827 177.036 168.808 185.483C171.347 189.829 173.886 195.639 174.716 198.911C175.058 200.376 175.058 200.376 172.665 198.13C171.347 196.909 169.247 195.298 168.027 194.614C166.611 193.784 165.097 192.27 163.974 190.61C162.997 189.145 161.728 187.632 161.093 187.241C160.507 186.802 156.357 185.386 151.864 184.018C143.564 181.479 142.294 181.382 139.999 182.846C139.169 183.384 138.437 183.237 135.165 181.968C125.155 178.061 120.712 172.202 119.98 161.655L119.687 157.895L123.446 155.454C131.21 150.473 139.267 141.587 143.173 133.725C144.052 131.968 144.833 130.503 144.882 130.405C144.98 130.307 145.712 130.6 146.542 130.991C151.181 133.432 157.187 129.429 156.698 124.204C156.552 122.397 156.747 122.007 159.238 119.321C160.751 117.71 162.509 115.317 163.193 114.096C163.827 112.827 164.413 111.85 164.511 111.899C164.56 111.948 164.267 114.878 163.876 118.345ZM150.741 124.692C150.741 125.815 149.081 126.304 148.544 125.376C147.909 124.399 148.593 123.423 149.716 123.569C150.351 123.667 150.741 124.057 150.741 124.692ZM67.8801 148.911C70.3703 151.255 74.0324 154.184 76.0344 155.503L79.7453 157.895L79.4523 161.655C78.9152 169.028 76.3273 174.643 71.9328 177.866C69.6867 179.526 64.5109 182.212 64.218 181.87C64.1203 181.772 64.3645 180.307 64.7551 178.598C66.5129 170.639 66.1223 163.755 63.2414 153.989C60.9465 146.177 59.1887 139.927 59.1887 139.389C59.1887 139.194 60.1164 140.268 61.2883 141.831C62.4602 143.442 65.4387 146.616 67.8801 148.911ZM99.716 164.731C103.232 164.731 104.648 164.438 108.847 162.973L113.876 161.216L114.12 162.827C114.267 163.755 114.462 165.317 114.609 166.294C115.488 172.3 119.003 178.647 123.3 182.114C125.888 184.165 132.04 187.339 135.702 188.413C137.607 188.999 137.802 189.292 140.878 195.2C142.587 198.569 144.784 203.159 145.663 205.405C147.03 208.872 147.177 209.507 146.591 209.897C145.761 210.434 135.116 213.022 130.673 213.804C114.462 216.636 89.9016 216.831 72.3723 214.243C61.7766 212.729 60.5559 212.339 60.0676 210.63C59.3352 208.139 59.5305 198.227 60.3606 194.37C61.3859 189.731 61.7277 189.096 63.925 188.364C67.7336 187.143 73.6906 184.067 76.132 182.114C80.4777 178.598 83.8957 172.348 84.8234 166.196C84.9699 165.122 85.2141 163.559 85.3605 162.729L85.5559 161.216L90.5852 162.973C94.7844 164.438 96.2004 164.731 99.716 164.731Z" fill="#77695E"/>
<path d="M121.98 85.8733C119.929 86.508 117.146 88.5588 116.218 90.1702C115.486 91.4397 115.437 91.6838 116.12 92.6116C117.048 93.9299 117.78 93.9787 119.831 92.7092C121.931 91.4397 122.419 91.4885 121.491 92.8069C121.003 93.5393 120.71 95.0041 120.71 96.9084C120.71 99.6916 120.857 100.033 122.224 101.205C124.323 102.963 126.667 102.914 128.571 101.059C129.792 99.8381 129.988 99.2522 129.988 97.0061C129.988 95.5901 129.646 93.7834 129.255 93.0022C128.62 91.8303 128.62 91.6838 129.255 91.8791C129.646 92.0744 131.208 92.4162 132.771 92.758C135.261 93.2463 135.847 93.2463 137.361 92.5139C139.167 91.6838 140.388 89.8772 139.851 88.9494C139.655 88.6565 138.532 88.3147 137.312 88.1682C136.091 88.0705 133.601 87.3869 131.696 86.7034C128.181 85.385 124.665 85.092 121.98 85.8733Z" fill="#77695E"/>
<path d="M93.4672 110.384C91.0258 111.556 91.807 114.828 94.9809 116.439C97.5688 117.806 99.6195 118.05 102.256 117.367C106.7 116.244 109.092 112.386 106.455 110.58C104.991 109.554 104.356 109.603 102.647 110.873C101.036 112.045 98.5453 112.142 97.3246 111.117C96.1527 110.043 94.7367 109.799 93.4672 110.384Z" fill="#77695E"/>
<path d="M89.8533 126.743C85.7029 126.889 85.0193 127.036 84.5798 127.866C83.7498 129.428 84.7752 130.698 87.6072 131.528C88.9744 131.918 91.367 132.26 92.8318 132.26C94.2966 132.26 96.4939 132.602 97.617 133.041C99.5701 133.823 99.863 133.823 101.816 133.041C102.939 132.602 105.136 132.26 106.601 132.26C112.119 132.26 116.123 130.209 114.902 127.914C114.463 127.133 113.584 126.987 108.213 126.743C104.258 126.596 101.572 126.694 100.84 127.036C100.058 127.377 99.3748 127.377 98.4959 126.987C97.8123 126.645 96.6404 126.45 95.908 126.498C95.1755 126.547 92.4412 126.694 89.8533 126.743Z" fill="#77695E"/>
<path d="M95.1273 136.703C91.2699 139.731 97.6176 144.028 102.793 141.879C105.186 140.854 106.016 139.096 104.893 137.387C104.161 136.264 103.819 136.166 101.28 136.264C99.766 136.362 98.057 136.215 97.4711 136.02C96.7387 135.776 96.0551 135.971 95.1273 136.703Z" fill="#77695E"/>
<path d="M118.566 105.894C119.907 106.824 121.06 105.459 119.981 104.084C119.47 103.45 119.747 101.353 119.163 101.797C118.778 102.087 117.454 103.203 117.753 104.883C117.853 105.443 118.242 105.671 118.566 105.894Z" fill="#77695E"/>
<path d="M125.71 112.165C127.566 112.591 128.033 110.577 126.212 109.544C125.359 109.074 124.548 106.644 124.182 107.393C123.941 107.883 123.168 109.7 124.351 111.415C124.746 111.986 125.262 112.063 125.71 112.165Z" fill="#77695E"/>
</svg>
