<svg width="70" height="54" viewBox="0 0 70 54" fill="none" xmlns="http://www.w3.org/2000/svg">
<g id="Group">
<path id="Vector" d="M4.0625 0.484497C3.03125 0.921997 2.84375 1.03137 2.23438 1.547C1.39062 2.26575 0.640625 3.39075 0.3125 4.43762C0 5.45325 0 5.82825 0 22.7814C0 39.6876 0 40.1095 0.3125 41.1095C1.03125 43.422 3.01562 45.0782 5.51562 45.4532C6.98438 45.6564 37.0156 45.6407 37.6406 45.422C37.9062 45.3282 38.2031 45.1251 38.2812 44.9689C38.5312 44.4845 38.4531 43.7345 38.125 43.4064C37.8125 43.0939 37.6094 43.0939 22.125 43.0939C12.2656 43.0939 6.14062 43.0314 5.60938 42.9376C4.53125 42.7345 3.65625 42.1251 3.04688 41.1407L2.57812 40.3907L2.53125 27.7501L2.5 15.1251H31.3281H60.1562V18.1095V21.0939L60.6094 21.547C60.8594 21.797 61.1719 22.0001 61.3125 22.0001C61.7188 22.0001 62.2969 21.672 62.4844 21.3126C62.625 21.0782 62.6562 18.7657 62.625 12.8595C62.5781 4.82825 62.5781 4.71887 62.2344 3.9845C61.4062 2.20325 60.0781 0.953247 58.375 0.390747C57.6719 0.140747 55.3281 0.125122 31.2656 0.125122H4.92188L4.0625 0.484497ZM57.8594 2.82825C58.6719 3.172 59.3906 3.89075 59.7812 4.7345C60.0781 5.3595 60.1562 5.78137 60.1562 6.797V8.09387H31.3281H2.5V6.95325C2.5 6.34387 2.57812 5.56262 2.65625 5.25012C2.89062 4.40637 3.71875 3.40637 4.51562 2.9845L5.20312 2.62512H31.2812C52.7969 2.62512 57.4375 2.65637 57.8594 2.82825ZM60.1562 11.6095V12.6251H31.3281H2.5V11.6095V10.5939H31.3281H60.1562V11.6095Z" fill="#77695E"/>
<path id="Vector_2" d="M47.203 24.7345C43.1717 26.047 40.1405 27.1095 39.9686 27.2657C39.3592 27.8751 38.828 31.8907 38.953 34.8907C39.1405 39.2188 40.3748 42.9845 42.6405 46.0157C44.8748 49.047 46.5311 50.2813 51.6873 52.7657C53.703 53.7345 54.1717 53.9063 54.6561 53.8282C55.4373 53.7345 60.6405 51.1407 62.1092 50.1251C63.6561 49.047 65.9686 46.5938 66.9998 44.9376C69.453 40.9845 70.453 35.8282 69.7655 30.7501C69.453 28.4063 69.2342 27.5313 68.9061 27.2345C68.6092 26.9688 54.8436 22.4532 54.3905 22.4845C54.2498 22.4845 51.0155 23.5001 47.203 24.7345ZM60.8592 27.1095L67.0155 29.0938L67.1873 30.0938C67.2811 30.6563 67.4061 31.922 67.453 32.922C67.7498 38.9688 65.3592 44.547 61.1092 47.7501C59.9373 48.6251 54.9686 51.2188 54.453 51.2188C54.328 51.2188 53.0155 50.6251 51.5311 49.9063C49.5311 48.922 48.4842 48.297 47.4998 47.5157C44.578 45.172 42.6561 41.8907 41.7655 37.7813C41.4217 36.1563 41.3748 31.8751 41.6873 30.1876L41.8905 29.0782L48.0155 27.1095C51.3905 26.0313 54.2655 25.1407 54.4217 25.1251C54.578 25.1251 57.4686 26.0157 60.8592 27.1095Z" fill="#77695E"/>
<path id="Vector_3" d="M60.2031 34.2189C59.875 34.5001 58.3125 35.8907 56.75 37.297L53.875 39.8595L52.25 38.2345C50.7969 36.7814 50.5781 36.6251 50.0625 36.6251C49.3438 36.6251 48.9062 37.1095 48.9062 37.9064C48.9062 38.4064 49.0938 38.6564 51.0625 40.6251C53.0312 42.5939 53.2812 42.7814 53.7812 42.7814C54.2812 42.7814 54.7031 42.4532 58.2188 39.3282C60.3594 37.422 62.2031 35.7657 62.3125 35.6251C62.6094 35.2501 62.5469 34.3907 62.1875 34.0314C61.7031 33.547 60.9062 33.6251 60.2031 34.2189Z" fill="#77695E"/>
<path id="Vector_4" d="M8.14078 35.3751C7.70328 35.922 7.73453 36.422 8.18765 36.9532L8.56265 37.3907H13.5158H18.4689L18.8439 36.9532C19.3283 36.3907 19.3283 35.8439 18.8283 35.3595L18.4533 34.9689H13.4533H8.45328L8.14078 35.3751Z" fill="#77695E"/>
</g>
</svg>
