<svg width="25" height="24" viewBox="0 0 25 24" fill="none" xmlns="http://www.w3.org/2000/svg">
<g clip-path="url(#clip0_393_11215)">
<path d="M3.33301 10C3.33301 10.9193 3.51407 11.8295 3.86585 12.6788C4.21763 13.5281 4.73325 14.2997 5.38326 14.9497C6.03327 15.5998 6.80495 16.1154 7.65422 16.4672C8.5035 16.8189 9.41376 17 10.333 17C11.2523 17 12.1625 16.8189 13.0118 16.4672C13.8611 16.1154 14.6327 15.5998 15.2828 14.9497C15.9328 14.2997 16.4484 13.5281 16.8002 12.6788C17.1519 11.8295 17.333 10.9193 17.333 10C17.333 9.08075 17.1519 8.1705 16.8002 7.32122C16.4484 6.47194 15.9328 5.70026 15.2828 5.05025C14.6327 4.40024 13.8611 3.88463 13.0118 3.53284C12.1625 3.18106 11.2523 3 10.333 3C9.41376 3 8.5035 3.18106 7.65422 3.53284C6.80495 3.88463 6.03327 4.40024 5.38326 5.05025C4.73325 5.70026 4.21763 6.47194 3.86585 7.32122C3.51407 8.1705 3.33301 9.08075 3.33301 10Z" stroke="#EBDAD1" stroke-width="1.5" stroke-linecap="round" stroke-linejoin="round"/>
<path d="M21.333 21L15.333 15" stroke="#EBDAD1" stroke-width="1.5" stroke-linecap="round" stroke-linejoin="round"/>
</g>
<defs>
<clipPath id="clip0_393_11215">
<rect width="24" height="24" fill="white" transform="translate(0.333008)"/>
</clipPath>
</defs>
</svg>
