<svg width="80" height="80" viewBox="0 0 80 80" fill="none" xmlns="http://www.w3.org/2000/svg">
<g id="&#208;&#148;&#208;&#190;&#208;&#191;&#208;&#190;&#208;&#188;&#208;&#190;&#208;&#179;&#208;&#176; &#208;&#191;&#208;&#187;&#208;&#176;&#208;&#189;&#208;&#181;&#209;&#130;&#209;&#150;">
<path id="Vector" d="M22.9252 0.307779C22.6127 0.604786 22.5033 0.917425 22.4251 1.71465C22.2532 3.35601 22.4251 8.92099 22.7064 10.4217C23.6441 15.3926 25.6443 19.1287 28.5978 21.3484C31.9577 23.8651 35.7707 24.7405 40.6307 24.1153C44.2718 23.6307 44.3343 23.615 45.4439 22.5521C45.9908 22.0206 46.694 21.1921 46.991 20.7075L47.5535 19.8008L48.2255 21.1764C49.0069 22.7865 49.9914 23.8182 51.3822 24.4592C52.1948 24.85 52.4292 24.8812 54.1482 24.8656C57.508 24.85 60.4459 23.8182 62.4305 21.958C64.2589 20.2542 64.7902 18.988 65.009 15.9085C65.2278 12.8602 65.4466 11.1251 65.8841 8.49893C66.1029 7.21711 66.2436 5.99781 66.1967 5.7946C66.0248 5.15369 65.4466 4.91921 63.8526 4.82541C62.0867 4.73162 60.3365 4.98174 58.2737 5.59138C56.1641 6.21666 53.3199 7.45159 52.0229 8.31134C50.8196 9.12421 49.4444 10.5623 48.8975 11.5941C48.6943 11.9849 48.4912 12.2975 48.4443 12.2975C48.3974 12.2975 48.2255 11.9223 48.0692 11.469C47.4441 9.65569 45.7408 7.40469 44.0218 6.12287C41.959 4.55967 40.24 3.91876 37.474 3.69991C35.1612 3.51233 31.9108 2.68384 27.5665 1.1988C23.5659 -0.176813 23.4253 -0.208076 22.9252 0.307779ZM32.8797 5.43506C33.9267 5.68517 35.4425 5.96655 36.2551 6.06034C40.0213 6.4824 41.584 7.12331 43.4592 8.99915C44.8657 10.406 45.6627 11.8754 46.0533 13.8138C46.2877 14.908 46.3034 15.2519 46.1315 16.2367C45.8971 17.5655 45.1157 19.3162 44.3656 20.1447L43.8343 20.7231L39.1149 15.4551C32.5046 8.09249 33.1141 8.70214 32.5046 8.70214C31.8014 8.70214 31.2545 9.218 31.2545 9.9058C31.2545 10.3591 31.5983 10.7968 33.8017 13.2667C40.3026 20.5512 41.0995 21.4422 41.0995 21.5516C41.0995 21.7236 38.4429 21.8799 37.0365 21.7861C35.0831 21.661 33.5516 21.2702 31.8952 20.473C30.6606 19.879 30.2074 19.5507 29.1604 18.4878C27.6602 16.9714 26.8007 15.5489 26.035 13.2354C25.238 10.8594 24.988 9.18673 24.8942 5.85712L24.8005 2.93395L27.9103 3.95003C29.6136 4.51278 31.8483 5.18495 32.8797 5.43506ZM63.3994 7.95181C63.3369 8.32697 63.1963 9.34305 63.0556 10.2028C62.9306 11.0782 62.7275 13.0947 62.6024 14.6892C62.4149 17.1434 62.3212 17.7218 62.0086 18.4252C61.2585 20.0353 59.2895 21.4735 56.9611 22.0675C55.789 22.3801 52.9761 22.5677 52.9761 22.3488C52.9761 22.2551 54.2263 20.4417 55.7578 18.3002C57.2892 16.1586 58.5863 14.2828 58.6488 14.1421C58.7894 13.7669 58.4769 12.954 58.1331 12.7665C57.7268 12.5476 56.9923 12.5789 56.6954 12.7977C56.5704 12.9071 55.2421 14.7048 53.7575 16.7995C52.2729 18.8785 51.0071 20.6293 50.929 20.6762C50.8509 20.7231 50.5852 20.348 50.3664 19.8477C50.0382 19.1287 49.9289 18.6441 49.882 17.5342C49.7726 15.0487 50.5383 13.0635 52.3042 11.3127C54.3357 9.29616 59.2114 7.48285 63.04 7.3109C63.4776 7.29527 63.4932 7.3109 63.3994 7.95181Z" fill="#77695E"/>
<path id="Vector_2" d="M46.6475 24.0996L46.2568 24.4747V31.2121V37.9495L46.6475 38.3247C46.8819 38.5748 47.2101 38.7155 47.507 38.7155C47.8039 38.7155 48.1321 38.5748 48.3665 38.3247L48.7572 37.9495V31.2121V24.4747L48.3665 24.0996C48.1321 23.8495 47.8039 23.7088 47.507 23.7088C47.2101 23.7088 46.8819 23.8495 46.6475 24.0996Z" fill="#77695E"/>
<path id="Vector_3" d="M36.4893 37.7305C34.3171 38.1838 31.9887 39.5907 30.676 41.2164C29.8946 42.1856 29.8165 42.764 30.3947 43.3267C31.0667 44.0145 31.5511 43.8739 32.8482 42.5764C34.1296 41.2946 35.3954 40.5599 36.8956 40.2003C39.7554 39.5282 42.4276 40.341 44.6623 42.5764C45.9593 43.8739 46.4438 44.0145 47.1157 43.3267C47.6939 42.764 47.6158 42.1856 46.8501 41.2164C44.4904 38.3245 40.2867 36.9176 36.4893 37.7305Z" fill="#77695E"/>
<path id="Vector_4" d="M49.1626 40.3253C48.3188 41.1694 48.897 42.4668 50.1159 42.4668C52.2412 42.4825 54.4915 43.905 56.0229 46.2341C56.4136 46.8125 56.8356 47.3284 56.9762 47.3753C57.7888 47.6879 58.7577 47.0939 58.7577 46.2654C58.7577 45.2493 56.7262 42.7482 54.9291 41.5602C53.5695 40.6379 52.2099 40.1533 50.6785 40.0126C49.6315 39.9345 49.5377 39.9501 49.1626 40.3253Z" fill="#77695E"/>
<path id="Vector_5" d="M65.0244 43.2486C63.1804 44.3585 61.6177 45.359 61.5552 45.4684C61.3677 45.7498 61.3833 46.4845 61.5708 46.844C61.7583 47.1879 62.571 47.5005 62.946 47.3598C63.0867 47.2973 64.54 46.4532 66.1652 45.484L69.1187 43.7176H70.7283C71.9472 43.7176 72.3223 43.7645 72.2754 43.9052C71.6191 46.0468 71.5409 46.2187 71.2284 46.2187C70.8846 46.2187 64.415 50.0173 64.118 50.4081C63.8836 50.7051 63.8524 51.4398 64.0712 51.8462C64.2587 52.1901 65.0713 52.5028 65.4463 52.3621C65.587 52.2995 67.0403 51.4554 68.6499 50.4862L71.5878 48.7198H73.1974H74.807L74.6507 49.3451C74.4944 49.9235 74.4319 49.9704 73.9475 49.9704C73.5256 49.9704 71.1815 51.2835 63.0085 56.0981C57.289 59.459 52.4602 62.2415 52.2727 62.2727C52.007 62.3196 30.6604 58.1146 29.8009 57.8489C28.8633 57.5519 28.582 56.1137 29.3165 55.4259L29.7228 55.0508L39.896 54.9726L50.0849 54.8945L51.0694 54.363C52.1633 53.769 52.6477 53.2687 53.2572 52.0963C53.601 51.4242 53.6635 51.0959 53.6635 49.9704C53.6791 48.7511 53.6322 48.5635 53.1478 47.6569C52.5696 46.5783 51.9133 45.953 50.7881 45.4059L50.0849 45.0463L34.8953 44.9994C18.1275 44.9525 18.6744 44.9213 16.5804 45.9373C15.6427 46.3907 14.7832 47.1879 7.76667 54.1754C0.656339 61.2879 0 61.9757 0 62.4447C0 63.1325 0.59383 63.7265 1.28142 63.7265C1.73461 63.7265 2.46908 63.0387 9.37627 56.1606C17.393 48.1571 17.5492 48.032 19.3776 47.6412C20.0183 47.5005 24.097 47.4693 34.9579 47.5005C49.5379 47.5474 49.6786 47.5474 50.1005 47.8757C50.9288 48.4853 51.1788 48.9856 51.1788 49.9704C51.1788 50.9552 50.9288 51.4554 50.1005 52.0651C49.6786 52.3933 49.4754 52.3933 39.4116 52.4715C29.1758 52.5497 29.1446 52.5497 28.5039 52.8936C27.2849 53.5345 26.2535 55.1915 26.2535 56.4577C26.2535 57.7551 27.3474 59.4903 28.5195 60.0374C29.0352 60.2875 51.882 64.9771 52.554 64.9771C52.7415 64.9771 54.1636 64.2267 55.7107 63.3201C57.2577 62.3978 62.024 59.584 66.3215 57.0673L74.1038 52.4715H75.729H77.3386L77.1042 53.2844C76.4478 55.5041 74.682 58.0834 72.5723 59.8967C71.2284 61.0222 52.1477 73.5121 50.3974 74.3875C47.3189 75.9351 43.7559 76.279 40.4742 75.3098C39.9116 75.1535 36.333 73.9186 32.5044 72.5586C28.6758 71.2142 25.3159 70.1044 25.0346 70.0887C24.5658 70.0731 24.1908 70.4014 20.4559 74.1374C18.2212 76.3571 16.3616 78.3424 16.3147 78.5144C16.2053 78.9208 16.6116 79.7493 16.9554 79.89C17.7837 80.2026 17.9556 80.0775 21.6436 76.3884C23.6126 74.4031 25.3159 72.7931 25.4253 72.7931C25.5347 72.7931 28.8008 73.9186 32.6919 75.2942C36.5831 76.6698 40.2554 77.9047 40.8649 78.0141C44.4435 78.7488 47.944 78.3268 51.1788 76.7948C52.6321 76.107 71.8378 63.664 73.5256 62.3196C76.6354 59.8498 78.9169 56.4733 79.6983 53.2218C80.1202 51.4554 80.1046 50.8301 79.6201 50.3612C79.292 50.0173 79.1044 49.9704 78.1668 49.9704H77.0885L77.2917 48.9856C77.6042 47.5318 77.573 47.0472 77.1198 46.6095C76.776 46.25 76.6197 46.2187 75.4633 46.2187C74.3225 46.2187 74.1975 46.1875 74.2757 45.9373C74.6507 44.7806 74.8695 43.8114 74.9476 42.9829C75.0414 42.0919 75.0258 41.9981 74.6507 41.6229L74.2444 41.2165H71.3065L68.3686 41.2321L65.0244 43.2486Z" fill="#77695E"/>
<path id="Vector_6" d="M56.0389 48.4541C55.1638 49.3295 55.6638 50.3925 57.039 50.6114C58.4298 50.8302 59.1487 51.5493 59.3675 52.9405C59.5862 54.3161 60.6489 54.8164 61.524 53.941C61.899 53.5658 61.9147 53.472 61.8209 52.5966C61.5709 50.2206 59.7425 48.3916 57.3672 48.1415C56.5233 48.0633 56.4139 48.079 56.0389 48.4541Z" fill="#77695E"/>
</g>
</svg>
